<svg version="1.1" id="Layer_1" xmlns="http://www.w3.org/2000/svg" xmlns:xlink="http://www.w3.org/1999/xlink" x="0px" y="0px"
	 width="100%" viewBox="0 0 458 458" enable-background="new 0 0 458 458" xml:space="preserve">
<path fill="#FFFFFF" opacity="1.000000" stroke="none" 
	d="
M290.000000,459.000000 
	C193.333328,459.000000 97.166664,459.000000 1.000000,459.000000 
	C1.000000,306.333344 1.000000,153.666672 1.000000,1.000000 
	C153.666672,1.000000 306.333344,1.000000 459.000000,1.000000 
	C459.000000,153.666672 459.000000,306.333344 459.000000,459.000000 
	C402.833344,459.000000 346.666656,459.000000 290.000000,459.000000 
M112.157364,286.906342 
	C95.621391,287.606415 79.085243,288.302277 62.550022,289.019684 
	C61.759296,289.053986 60.976822,289.278351 60.275150,289.399597 
	C59.029751,295.079529 61.859795,298.596527 66.176079,300.992889 
	C84.494385,311.163086 104.354050,310.893372 124.386497,309.328400 
	C130.075424,308.883942 135.775085,308.577118 141.469833,308.207153 
	C141.512131,308.733856 141.554443,309.260559 141.596741,309.787262 
	C125.476936,311.183868 109.357140,312.580475 93.063789,313.992126 
	C92.897896,317.828735 95.107262,320.333954 98.559868,322.204987 
	C108.231438,327.446198 118.943626,328.283081 129.503891,328.825836 
	C139.063644,329.317169 148.726440,328.672668 158.293396,327.902679 
	C167.262161,327.180908 176.188324,325.786224 185.083694,324.375305 
	C188.120514,323.893677 189.313370,324.162170 190.151886,327.584015 
	C195.064423,347.630737 201.290649,367.264130 211.224274,385.474854 
	C217.585907,397.137299 226.564880,405.666718 240.757614,405.929810 
	C255.770782,406.208130 265.196686,397.142883 271.829712,385.084961 
	C277.185120,375.349579 281.085266,364.825165 286.107025,354.891449 
	C290.917938,345.374817 297.784332,337.401428 306.323364,330.916290 
	C325.017822,316.718445 346.162109,316.980621 367.854614,320.423187 
	C377.227234,321.910583 386.391113,323.847565 396.160370,322.176727 
	C416.093048,318.767731 427.836792,301.142029 421.184906,281.392120 
	C415.263367,263.810699 403.256744,250.325409 391.838959,236.429413 
	C387.143677,230.715042 381.908478,225.444321 376.754730,219.791794 
	C389.938507,207.130249 400.605682,192.810471 410.055145,177.504028 
	C416.290405,167.404007 421.336639,156.819382 423.740753,145.183121 
	C424.301178,142.470413 423.351990,139.344498 422.639343,136.524460 
	C422.386719,135.524841 420.826385,134.334641 419.761108,134.225372 
	C418.899384,134.136978 417.636688,135.367538 416.982239,136.311417 
	C414.558380,139.807236 412.454590,143.529205 409.963928,146.973389 
	C406.913422,151.191742 403.595123,155.216461 400.392609,159.324905 
	C400.030823,159.037338 399.669006,158.749756 399.307220,158.462189 
	C399.940552,157.399200 400.500946,156.284042 401.218323,155.281204 
	C409.825134,143.250153 417.994568,130.884521 421.158844,116.216553 
	C422.467926,110.148323 422.052551,103.634102 421.774017,97.351418 
	C421.707611,95.853676 419.243591,93.795418 417.505005,93.288162 
	C416.458313,92.982780 414.262970,94.887161 413.303528,96.290588 
	C407.117798,105.338654 401.205872,114.573624 395.044189,123.638542 
	C392.271820,127.717270 389.130768,131.545425 386.157013,135.487274 
	C385.759094,135.212860 385.361145,134.938446 384.963226,134.664032 
	C385.285828,133.972519 385.549438,133.245621 385.939728,132.594696 
	C395.513031,116.627678 405.726166,101.001114 414.440369,84.578987 
	C419.370392,75.288239 422.684326,64.912720 422.031677,53.871838 
	C421.758026,49.242691 420.186859,47.847183 415.770996,49.191750 
	C414.073090,49.708744 412.311371,50.506359 410.975830,51.642769 
	C403.067352,58.372044 394.537170,64.567963 387.604034,72.203552 
	C374.675659,86.441925 362.111786,101.100937 350.527649,116.439369 
	C342.502228,127.065727 335.579224,138.718262 332.426147,152.061874 
	C331.346527,156.630692 332.209076,160.288452 336.779358,162.334198 
	C345.307892,166.151733 351.956879,172.257843 357.168243,179.799927 
	C363.259216,188.614975 367.924255,198.062958 366.797607,209.823730 
	C365.449585,209.072433 364.408325,208.631287 363.524933,207.977005 
	C358.127350,203.979309 353.008057,199.549438 347.347839,195.972931 
	C327.796478,183.619095 312.297974,183.278961 292.795776,196.319382 
	C284.773926,201.683319 278.081879,209.210571 271.358765,216.298157 
	C262.884247,225.232117 252.674728,230.427094 240.822311,233.045776 
	C228.766418,235.709412 216.501465,237.341537 205.508606,243.998718 
	C190.287338,253.216599 181.550064,272.201752 184.760498,289.900635 
	C185.911255,296.244598 185.538330,302.864899 185.860809,309.359100 
	C185.441650,309.669220 185.022491,309.979340 184.603333,310.289459 
	C180.535568,306.159760 175.879913,302.456451 172.514969,297.817047 
	C163.888336,285.923035 159.155243,272.775330 161.593475,257.683411 
	C161.866669,255.992477 160.671005,253.411087 159.301117,252.265732 
	C157.397156,250.673889 154.777985,249.608231 152.302582,249.083710 
	C138.536133,246.166763 124.734932,245.786118 110.600266,246.722595 
	C91.684792,247.975800 73.084717,250.603882 54.763023,255.123016 
	C44.807625,257.578552 35.026138,260.886871 25.383804,264.406647 
	C19.899029,266.408783 19.694033,269.742371 24.105097,273.560242 
	C25.207163,274.514099 26.497734,275.322418 27.823065,275.934875 
	C40.498554,281.792511 54.057758,284.263794 67.802544,284.848541 
	C83.272026,285.506653 98.791496,285.061310 114.288193,284.951874 
	C117.672523,284.927979 121.052536,284.294434 124.434540,283.941650 
	C124.466843,284.194733 124.499153,284.447784 124.531456,284.700867 
	C120.678474,285.307709 116.825493,285.914551 112.157364,286.906342 
M211.295792,217.905075 
	C227.365707,209.871933 243.876282,202.597137 259.379272,193.588394 
	C274.330933,184.900055 287.863373,173.952850 298.468018,159.966583 
	C302.408630,154.769424 305.207275,148.939972 303.560150,142.134384 
	C301.118317,132.045197 292.488800,129.667374 282.964386,130.229721 
	C266.481476,131.202942 251.155197,137.148895 236.233093,143.955658 
	C216.634033,152.895798 198.215698,163.850006 181.422043,177.341385 
	C173.098511,184.028198 165.181244,191.285782 160.366150,201.180161 
	C154.090225,214.076279 160.828720,224.676620 175.092804,225.089676 
	C187.525955,225.449692 199.085327,222.273209 211.295792,217.905075 
z"/>
<path fill="#26C2EB" opacity="1.000000" stroke="none" 
	d="
M112.564941,286.713867 
	C116.825493,285.914551 120.678474,285.307709 124.531456,284.700867 
	C124.499153,284.447784 124.466843,284.194733 124.434540,283.941650 
	C121.052536,284.294434 117.672523,284.927979 114.288193,284.951874 
	C98.791496,285.061310 83.272026,285.506653 67.802544,284.848541 
	C54.057758,284.263794 40.498554,281.792511 27.823065,275.934875 
	C26.497734,275.322418 25.207163,274.514099 24.105097,273.560242 
	C19.694033,269.742371 19.899029,266.408783 25.383804,264.406647 
	C35.026138,260.886871 44.807625,257.578552 54.763023,255.123016 
	C73.084717,250.603882 91.684792,247.975800 110.600266,246.722595 
	C124.734932,245.786118 138.536133,246.166763 152.302582,249.083710 
	C154.777985,249.608231 157.397156,250.673889 159.301117,252.265732 
	C160.671005,253.411087 161.866669,255.992477 161.593475,257.683411 
	C159.155243,272.775330 163.888336,285.923035 172.514969,297.817047 
	C175.879913,302.456451 180.535568,306.159760 184.603333,310.289459 
	C185.022491,309.979340 185.441650,309.669220 185.860809,309.359100 
	C185.538330,302.864899 185.911255,296.244598 184.760498,289.900635 
	C181.550064,272.201752 190.287338,253.216599 205.508606,243.998718 
	C216.501465,237.341537 228.766418,235.709412 240.822311,233.045776 
	C252.674728,230.427094 262.884247,225.232117 271.358765,216.298157 
	C278.081879,209.210571 284.773926,201.683319 292.795776,196.319382 
	C312.297974,183.278961 327.796478,183.619095 347.347839,195.972931 
	C353.008057,199.549438 358.127350,203.979309 363.524933,207.977005 
	C364.408325,208.631287 365.449585,209.072433 366.797607,209.823730 
	C367.924255,198.062958 363.259216,188.614975 357.168243,179.799927 
	C351.956879,172.257843 345.307892,166.151733 336.779358,162.334198 
	C332.209076,160.288452 331.346527,156.630692 332.426147,152.061874 
	C335.579224,138.718262 342.502228,127.065727 350.527649,116.439369 
	C362.111786,101.100937 374.675659,86.441925 387.604034,72.203552 
	C394.537170,64.567963 403.067352,58.372044 410.975830,51.642769 
	C412.311371,50.506359 414.073090,49.708744 415.770996,49.191750 
	C420.186859,47.847183 421.758026,49.242691 422.031677,53.871838 
	C422.684326,64.912720 419.370392,75.288239 414.440369,84.578987 
	C405.726166,101.001114 395.513031,116.627678 385.939728,132.594696 
	C385.549438,133.245621 385.285828,133.972519 384.963226,134.664032 
	C385.361145,134.938446 385.759094,135.212860 386.157013,135.487274 
	C389.130768,131.545425 392.271820,127.717270 395.044189,123.638542 
	C401.205872,114.573624 407.117798,105.338654 413.303528,96.290588 
	C414.262970,94.887161 416.458313,92.982780 417.505005,93.288162 
	C419.243591,93.795418 421.707611,95.853676 421.774017,97.351418 
	C422.052551,103.634102 422.467926,110.148323 421.158844,116.216553 
	C417.994568,130.884521 409.825134,143.250153 401.218323,155.281204 
	C400.500946,156.284042 399.940552,157.399200 399.307220,158.462189 
	C399.669006,158.749756 400.030823,159.037338 400.392609,159.324905 
	C403.595123,155.216461 406.913422,151.191742 409.963928,146.973389 
	C412.454590,143.529205 414.558380,139.807236 416.982239,136.311417 
	C417.636688,135.367538 418.899384,134.136978 419.761108,134.225372 
	C420.826385,134.334641 422.386719,135.524841 422.639343,136.524460 
	C423.351990,139.344498 424.301178,142.470413 423.740753,145.183121 
	C421.336639,156.819382 416.290405,167.404007 410.055145,177.504028 
	C400.605682,192.810471 389.938507,207.130249 376.754730,219.791794 
	C381.908478,225.444321 387.143677,230.715042 391.838959,236.429413 
	C403.256744,250.325409 415.263367,263.810699 421.184906,281.392120 
	C427.836792,301.142029 416.093048,318.767731 396.160370,322.176727 
	C386.391113,323.847565 377.227234,321.910583 367.854614,320.423187 
	C346.162109,316.980621 325.017822,316.718445 306.323364,330.916290 
	C297.784332,337.401428 290.917938,345.374817 286.107025,354.891449 
	C281.085266,364.825165 277.185120,375.349579 271.829712,385.084961 
	C265.196686,397.142883 255.770782,406.208130 240.757614,405.929810 
	C226.564880,405.666718 217.585907,397.137299 211.224274,385.474854 
	C201.290649,367.264130 195.064423,347.630737 190.151886,327.584015 
	C189.313370,324.162170 188.120514,323.893677 185.083694,324.375305 
	C176.188324,325.786224 167.262161,327.180908 158.293396,327.902679 
	C148.726440,328.672668 139.063644,329.317169 129.503891,328.825836 
	C118.943626,328.283081 108.231438,327.446198 98.559868,322.204987 
	C95.107262,320.333954 92.897896,317.828735 93.063789,313.992126 
	C109.357140,312.580475 125.476936,311.183868 141.596741,309.787262 
	C141.554443,309.260559 141.512131,308.733856 141.469833,308.207153 
	C135.775085,308.577118 130.075424,308.883942 124.386497,309.328400 
	C104.354050,310.893372 84.494385,311.163086 66.176079,300.992889 
	C61.859795,298.596527 59.029751,295.079529 60.275150,289.399597 
	C60.976822,289.278351 61.759296,289.053986 62.550022,289.019684 
	C79.085243,288.302277 95.621391,287.606415 112.564941,286.713867 
M264.937317,379.260223 
	C268.966309,370.137390 272.601898,360.814667 277.112152,351.936279 
	C284.783417,336.835510 295.800201,324.727417 311.131348,316.977997 
	C329.755585,307.564056 349.434082,309.157043 369.164429,311.590759 
	C378.073700,312.689697 386.774963,315.060486 396.003876,313.121582 
	C407.123352,310.785522 416.463104,299.419159 413.747711,289.109772 
	C412.027222,282.577667 409.390289,275.902496 405.579529,270.386353 
	C397.949615,259.341949 389.385101,248.925018 380.926331,238.475769 
	C369.003632,223.747406 354.993011,211.266968 338.772461,201.440628 
	C328.847687,195.428253 318.443359,193.879318 307.320801,198.833679 
	C297.545563,203.187897 289.535400,209.777008 282.918915,217.812607 
	C274.161804,228.447983 263.413818,235.887909 250.458542,239.870483 
	C241.755127,242.545990 232.520996,243.486649 223.802231,246.122696 
	C209.158142,250.550247 197.208786,258.359039 194.158234,274.855652 
	C192.064407,286.178650 192.957916,297.688782 195.568115,308.641052 
	C199.945404,327.007904 205.364609,345.158386 211.118546,363.152649 
	C214.354538,373.272552 219.021011,382.805847 226.913025,390.622009 
	C235.728104,399.352295 247.670319,398.627289 255.814438,390.571930 
	C259.064484,387.357300 261.661987,383.482941 264.937317,379.260223 
M384.825623,136.274353 
	C384.485626,136.162827 384.145630,136.051285 383.805603,135.939758 
	C383.740173,136.166443 383.674713,136.393143 383.609283,136.619827 
	C383.886597,136.684479 384.163910,136.749130 384.825623,136.274353 
z"/>
<path fill="#26C2EB" opacity="1.000000" stroke="none" 
	d="
M210.900482,217.952759 
	C199.085327,222.273209 187.525955,225.449692 175.092804,225.089676 
	C160.828720,224.676620 154.090225,214.076279 160.366150,201.180161 
	C165.181244,191.285782 173.098511,184.028198 181.422043,177.341385 
	C198.215698,163.850006 216.634033,152.895798 236.233093,143.955658 
	C251.155197,137.148895 266.481476,131.202942 282.964386,130.229721 
	C292.488800,129.667374 301.118317,132.045197 303.560150,142.134384 
	C305.207275,148.939972 302.408630,154.769424 298.468018,159.966583 
	C287.863373,173.952850 274.330933,184.900055 259.379272,193.588394 
	C243.876282,202.597137 227.365707,209.871933 210.900482,217.952759 
M215.575790,206.096985 
	C218.427322,204.870193 221.316864,203.724182 224.124146,202.403366 
	C240.902786,194.509109 256.911407,185.256561 271.437531,173.726807 
	C280.184357,166.784210 289.090790,159.748444 293.966827,149.146240 
	C295.981232,144.766174 294.510101,140.756287 289.840332,140.206421 
	C284.751312,139.607193 279.130920,139.021759 274.421509,140.538895 
	C260.179749,145.126831 245.693619,149.590988 232.380722,156.256470 
	C217.847809,163.532776 203.965027,172.463593 190.867706,182.122543 
	C182.530792,188.270828 175.798737,196.767670 169.006775,204.771255 
	C165.172012,209.290115 167.585022,215.131760 173.150009,215.812973 
	C177.365295,216.328979 181.921341,216.405624 185.984161,215.355804 
	C195.742584,212.834320 205.300095,209.535217 215.575790,206.096985 
z"/>
<path fill="#FFFFFF" opacity="1.000000" stroke="none" 
	d="
M264.746948,379.584564 
	C261.661987,383.482941 259.064484,387.357300 255.814438,390.571930 
	C247.670319,398.627289 235.728104,399.352295 226.913025,390.622009 
	C219.021011,382.805847 214.354538,373.272552 211.118546,363.152649 
	C205.364609,345.158386 199.945404,327.007904 195.568115,308.641052 
	C192.957916,297.688782 192.064407,286.178650 194.158234,274.855652 
	C197.208786,258.359039 209.158142,250.550247 223.802231,246.122696 
	C232.520996,243.486649 241.755127,242.545990 250.458542,239.870483 
	C263.413818,235.887909 274.161804,228.447983 282.918915,217.812607 
	C289.535400,209.777008 297.545563,203.187897 307.320801,198.833679 
	C318.443359,193.879318 328.847687,195.428253 338.772461,201.440628 
	C354.993011,211.266968 369.003632,223.747406 380.926331,238.475769 
	C389.385101,248.925018 397.949615,259.341949 405.579529,270.386353 
	C409.390289,275.902496 412.027222,282.577667 413.747711,289.109772 
	C416.463104,299.419159 407.123352,310.785522 396.003876,313.121582 
	C386.774963,315.060486 378.073700,312.689697 369.164429,311.590759 
	C349.434082,309.157043 329.755585,307.564056 311.131348,316.977997 
	C295.800201,324.727417 284.783417,336.835510 277.112152,351.936279 
	C272.601898,360.814667 268.966309,370.137390 264.746948,379.584564 
M252.950760,321.543121 
	C255.022064,320.293427 257.093353,319.043762 259.359467,317.676544 
	C256.921326,312.900452 254.727600,308.603058 252.533478,304.311798 
	C253.833069,303.611969 255.136444,302.919037 256.431641,302.211182 
	C266.145660,296.902313 266.380371,295.510498 259.917053,286.305054 
	C258.265594,283.952942 256.831268,283.394989 254.313950,284.884308 
	C251.164017,286.747894 247.836426,288.311249 244.586121,290.003876 
	C242.592865,286.480591 241.070099,283.158752 238.925766,280.303802 
	C238.048218,279.135406 235.553726,278.096161 234.259628,278.497375 
	C223.742661,281.758240 222.736496,284.441376 227.987946,293.888763 
	C228.610229,295.008240 229.368454,296.052124 230.313889,297.519440 
	C228.540298,298.732635 227.064285,300.086914 225.330429,300.871216 
	C215.476639,305.328827 217.160141,305.415283 221.754547,314.219177 
	C222.055695,314.796234 222.658707,315.221893 222.931656,315.806519 
	C224.395493,318.941895 226.751160,318.372864 229.141113,317.275024 
	C230.323029,316.732117 231.323227,315.804840 232.484695,315.204376 
	C238.532761,312.077728 238.541611,312.094849 241.545670,318.071777 
	C245.050995,325.045990 245.479202,325.199677 252.950760,321.543121 
M319.515808,252.888474 
	C313.510284,249.731812 309.168884,250.584442 305.971771,255.548523 
	C303.144653,259.938080 304.035767,266.196716 308.093109,268.971313 
	C313.497650,272.667145 317.672394,271.342468 321.851776,267.465637 
	C325.536621,264.047516 324.505554,257.113251 319.515808,252.888474 
M347.992554,265.957367 
	C347.074127,260.782654 343.544128,258.339020 338.729004,258.105743 
	C334.505341,257.901093 331.131836,259.963135 329.458923,264.092224 
	C327.787750,268.217072 328.941315,274.018677 332.803375,275.966278 
	C335.525391,277.338989 339.434540,277.753540 342.379883,276.968506 
	C347.094971,275.711731 348.774261,271.670349 347.992554,265.957367 
M312.884186,231.511124 
	C312.488831,232.570663 312.101318,233.633209 311.696777,234.689240 
	C310.071747,238.931641 311.808929,242.876282 315.217529,244.268753 
	C318.574646,245.640152 323.649597,246.071091 326.611908,244.442688 
	C332.217957,241.360992 332.574402,234.380249 328.564423,230.062057 
	C324.259155,225.425873 317.775208,225.711914 312.884186,231.511124 
M354.992065,240.952148 
	C353.055298,235.258469 349.074768,232.904465 343.301483,234.038559 
	C338.628906,234.956421 335.571838,239.719696 336.002594,245.411011 
	C336.358032,250.107315 339.494263,252.887268 344.564026,252.999802 
	C352.686157,253.180069 354.994141,250.703995 354.992065,240.952148 
z"/>
<path fill="#FFFFFF" opacity="1.000000" stroke="none" 
	d="
M384.633423,136.544067 
	C384.163910,136.749130 383.886597,136.684479 383.609253,136.619843 
	C383.674713,136.393143 383.740173,136.166443 383.805603,135.939758 
	C384.145630,136.051285 384.485626,136.162827 384.633423,136.544067 
z"/>
<path fill="#FFFFFF" opacity="1.000000" stroke="none" 
	d="
M215.257233,206.323425 
	C205.300095,209.535217 195.742584,212.834320 185.984161,215.355804 
	C181.921341,216.405624 177.365295,216.328979 173.150009,215.812973 
	C167.585022,215.131760 165.172012,209.290115 169.006775,204.771255 
	C175.798737,196.767670 182.530792,188.270828 190.867706,182.122543 
	C203.965027,172.463593 217.847809,163.532776 232.380722,156.256470 
	C245.693619,149.590988 260.179749,145.126831 274.421509,140.538895 
	C279.130920,139.021759 284.751312,139.607193 289.840332,140.206421 
	C294.510101,140.756287 295.981232,144.766174 293.966827,149.146240 
	C289.090790,159.748444 280.184357,166.784210 271.437531,173.726807 
	C256.911407,185.256561 240.902786,194.509109 224.124146,202.403366 
	C221.316864,203.724182 218.427322,204.870193 215.257233,206.323425 
z"/>
<path fill="#26C2EB" opacity="1.000000" stroke="none" 
	d="
M252.624435,321.737305 
	C245.479202,325.199677 245.050995,325.045990 241.545670,318.071777 
	C238.541611,312.094849 238.532761,312.077728 232.484695,315.204376 
	C231.323227,315.804840 230.323029,316.732117 229.141113,317.275024 
	C226.751160,318.372864 224.395493,318.941895 222.931656,315.806519 
	C222.658707,315.221893 222.055695,314.796234 221.754547,314.219177 
	C217.160141,305.415283 215.476639,305.328827 225.330429,300.871216 
	C227.064285,300.086914 228.540298,298.732635 230.313889,297.519440 
	C229.368454,296.052124 228.610229,295.008240 227.987946,293.888763 
	C222.736496,284.441376 223.742661,281.758240 234.259628,278.497375 
	C235.553726,278.096161 238.048218,279.135406 238.925766,280.303802 
	C241.070099,283.158752 242.592865,286.480591 244.586121,290.003876 
	C247.836426,288.311249 251.164017,286.747894 254.313950,284.884308 
	C256.831268,283.394989 258.265594,283.952942 259.917053,286.305054 
	C266.380371,295.510498 266.145660,296.902313 256.431641,302.211182 
	C255.136444,302.919037 253.833069,303.611969 252.533661,304.308716 
	C254.727600,308.603058 256.921326,312.900452 259.359467,317.676544 
	C257.093353,319.043762 255.022064,320.293427 252.624435,321.737305 
z"/>
<path fill="#26C2EB" opacity="1.000000" stroke="none" 
	d="
M319.901062,252.981293 
	C324.505554,257.113251 325.536621,264.047516 321.851776,267.465637 
	C317.672394,271.342468 313.497650,272.667145 308.093109,268.971313 
	C304.035767,266.196716 303.144653,259.938080 305.971771,255.548523 
	C309.168884,250.584442 313.510284,249.731812 319.901062,252.981293 
z"/>
<path fill="#26C2EB" opacity="1.000000" stroke="none" 
	d="
M347.995789,266.379578 
	C348.774261,271.670349 347.094971,275.711731 342.379883,276.968506 
	C339.434540,277.753540 335.525391,277.338989 332.803375,275.966278 
	C328.941315,274.018677 327.787750,268.217072 329.458923,264.092224 
	C331.131836,259.963135 334.505341,257.901093 338.729004,258.105743 
	C343.544128,258.339020 347.074127,260.782654 347.995789,266.379578 
z"/>
<path fill="#26C2EB" opacity="1.000000" stroke="none" 
	d="
M312.976379,231.128387 
	C317.775208,225.711914 324.259155,225.425873 328.564423,230.062057 
	C332.574402,234.380249 332.217957,241.360992 326.611908,244.442688 
	C323.649597,246.071091 318.574646,245.640152 315.217529,244.268753 
	C311.808929,242.876282 310.071747,238.931641 311.696777,234.689240 
	C312.101318,233.633209 312.488831,232.570663 312.976379,231.128387 
z"/>
<path fill="#26C2EB" opacity="1.000000" stroke="none" 
	d="
M354.995544,241.378510 
	C354.994141,250.703995 352.686157,253.180069 344.564026,252.999802 
	C339.494263,252.887268 336.358032,250.107315 336.002594,245.411011 
	C335.571838,239.719696 338.628906,234.956421 343.301483,234.038559 
	C349.074768,232.904465 353.055298,235.258469 354.995544,241.378510 
z"/>
</svg>